<svg width="62" height="62" viewBox="0 0 62 62" fill="none" xmlns="http://www.w3.org/2000/svg">
<path d="M31.2065 0C48.3307 0 62 13.8758 62 31C62 48.1242 48.1242 62 31 62C13.8758 62 -1.11486e-06 48.1242 -1.11486e-06 31C-1.11486e-06 13.8758 14.0824 0 31.2065 0ZM41.543 15.9506C38.3322 15.9506 35.7223 18.5512 35.7223 21.7714C35.7223 24.9821 38.3228 27.5921 41.543 27.5921C44.7632 27.5921 47.3637 24.9915 47.3637 21.7714C47.3637 18.5512 44.7538 15.9506 41.543 15.9506ZM19.2084 41.5242H43.1672C44.7256 41.5242 45.9836 40.2662 45.9836 38.7078C45.9836 37.1493 44.7256 35.8913 43.1672 35.8913H19.2177C17.6593 35.8913 16.4013 37.1493 16.4013 38.7078C16.4013 40.2662 17.6593 41.5242 19.2084 41.5242ZM20.8325 27.5827C24.0433 27.5827 26.6532 24.9821 26.6532 21.762C26.6532 18.5512 24.0527 15.9412 20.8325 15.9412C17.6124 15.9412 15.0118 18.5418 15.0118 21.762C15.0118 24.9821 17.6217 27.5827 20.8325 27.5827Z" fill="black"/>
</svg>
