<svg width="35" height="35" viewBox="0 0 35 35" fill="none" xmlns="http://www.w3.org/2000/svg">
<path d="M34.6307 16.2562C30.2817 11.9072 30.3348 11.9178 30.0901 11.8007C29.8881 11.705 28.6121 11.1308 22.6252 8.40862C22.0936 8.16405 21.4556 8.40862 21.2216 8.9403C20.977 9.47197 21.2216 10.11 21.7533 10.3439L27.07 12.7577L17.9467 16.905L8.82329 12.7577L14.14 10.3439C14.6717 10.0993 14.9163 9.47197 14.6717 8.9403C14.4272 8.40862 13.7998 8.16407 13.2681 8.40862C8.08949 10.7586 5.68649 11.8644 5.8032 11.8007C5.55863 11.9177 5.66497 11.8539 1.26261 16.2562C0.741588 16.7773 0.901074 17.6705 1.57098 17.9789L13.2678 23.2956C13.6719 23.4764 14.1504 23.3913 14.4588 23.083L16.8938 20.6479V31.3134L7.32369 26.9644V23.3915C7.32369 22.8067 6.8452 22.3282 6.26034 22.3282C5.67548 22.3282 5.19699 22.8067 5.19699 23.3915C5.19699 28.0914 5.15446 27.8576 5.3884 28.2193C5.49473 28.3788 5.46283 28.3788 5.7074 28.5383C5.81374 28.6021 5.7393 28.5915 5.84564 28.634C18.5739 34.4186 17.6276 34.0358 17.9573 34.0358C18.287 34.0358 17.4256 34.3761 30.09 28.6235C30.4728 28.4533 30.7174 28.0705 30.7174 27.6558V19.6383L34.3434 17.9901C35.0239 17.6817 35.1834 16.7885 34.6517 16.2675L34.6307 16.2562ZM13.4488 21.052L3.81499 16.6816L6.46272 14.0339L16.0965 18.4149L13.4488 21.0626V21.052ZM28.5698 26.9537L18.9996 31.3027V20.6373C21.6155 23.2531 21.6048 23.3913 22.1897 23.3913C22.5406 23.3913 22.2535 23.4658 28.5698 20.5947V26.9643V26.9537ZM22.4238 21.052L19.7761 18.4043L29.4099 14.0233L32.0576 16.671L22.4238 21.052Z" fill="black"/>
<path d="M16.8619 9.47244C16.8619 8.09008 17.6382 6.83533 18.9461 6.11225C19.7542 5.66564 20.1796 4.78308 20.0094 3.85795C19.733 2.31611 17.8189 1.5505 16.5536 2.62446C15.8625 3.20932 15.6285 4.14507 15.9156 4.96383C16.107 5.51678 15.8199 6.12287 15.267 6.32492C14.7141 6.51632 14.108 6.22922 13.9059 5.67629C13.3317 4.04939 13.7889 2.16741 15.1819 0.997553C17.6914 -1.11853 21.5515 0.327625 22.1044 3.49644C22.4234 5.30414 21.5621 7.11184 19.9671 7.98395C19.3504 8.32422 18.9782 8.88778 18.9782 9.48326C18.9782 10.9081 16.8515 11.0039 16.8515 9.48326L16.8619 9.47244Z" fill="black"/>
<path d="M17.9462 13.822C17.3613 13.822 16.8828 13.3435 16.8828 12.7587C16.8828 12.4503 17.1167 11.6953 17.9462 11.6953C18.531 11.6953 19.0095 12.1738 19.0095 12.7587C19.0095 13.3435 18.531 13.822 17.9462 13.822Z" fill="black"/>
</svg>
