<svg width="30" height="19" viewBox="0 0 30 19" fill="none" xmlns="http://www.w3.org/2000/svg">
<path d="M7 8C6.20887 8 5.43552 7.76541 4.77772 7.32588C4.11992 6.88635 3.60723 6.26164 3.30448 5.53074C3.00173 4.79983 2.92252 3.99556 3.07686 3.21964C3.2312 2.44372 3.61216 1.73098 4.17157 1.17157C4.73098 0.612164 5.44371 0.231202 6.21964 0.0768607C6.99556 -0.0774802 7.79983 0.00173312 8.53073 0.304484C9.26164 0.607234 9.88635 1.11992 10.3259 1.77772C10.7654 2.43552 11 3.20888 11 4C11 5.06087 10.5786 6.07828 9.82843 6.82843C9.07828 7.57857 8.06087 8 7 8ZM7 2C6.60444 2 6.21776 2.1173 5.88886 2.33706C5.55996 2.55683 5.30362 2.86918 5.15224 3.23464C5.00087 3.60009 4.96126 4.00222 5.03843 4.39018C5.1156 4.77814 5.30608 5.13451 5.58579 5.41422C5.86549 5.69392 6.22186 5.8844 6.60982 5.96157C6.99778 6.03874 7.39991 5.99914 7.76537 5.84776C8.13082 5.69639 8.44318 5.44004 8.66294 5.11114C8.8827 4.78224 9 4.39556 9 4C9 3.46957 8.78929 2.96086 8.41421 2.58579C8.03914 2.21072 7.53043 2 7 2ZM13 19H1C0.734784 19 0.48043 18.8946 0.292893 18.7071C0.105357 18.5196 0 18.2652 0 18V14C0 12.6739 0.526784 11.4021 1.46447 10.4645C2.40215 9.52679 3.67392 9 5 9H9C10.3261 9 11.5979 9.52679 12.5355 10.4645C13.4732 11.4021 14 12.6739 14 14V18C14 18.2652 13.8946 18.5196 13.7071 18.7071C13.5196 18.8946 13.2652 19 13 19ZM2 17H12V14C12 13.2044 11.6839 12.4413 11.1213 11.8787C10.5587 11.3161 9.79565 11 9 11H5C4.20435 11 3.44129 11.3161 2.87868 11.8787C2.31607 12.4413 2 13.2044 2 14V17ZM30 7C30 6.73479 29.8946 6.48043 29.7071 6.2929C29.5196 6.10536 29.2652 6 29 6H17C16.7348 6 16.4804 6.10536 16.2929 6.2929C16.1054 6.48043 16 6.73479 16 7C16 7.26522 16.1054 7.51957 16.2929 7.70711C16.4804 7.89464 16.7348 8 17 8H29C29.2652 8 29.5196 7.89464 29.7071 7.70711C29.8946 7.51957 30 7.26522 30 7ZM30 11C30 10.7348 29.8946 10.4804 29.7071 10.2929C29.5196 10.1054 29.2652 10 29 10H17C16.7348 10 16.4804 10.1054 16.2929 10.2929C16.1054 10.4804 16 10.7348 16 11C16 11.2652 16.1054 11.5196 16.2929 11.7071C16.4804 11.8946 16.7348 12 17 12H29C29.2652 12 29.5196 11.8946 29.7071 11.7071C29.8946 11.5196 30 11.2652 30 11ZM24 15C24 14.7348 23.8946 14.4804 23.7071 14.2929C23.5196 14.1054 23.2652 14 23 14H17C16.7348 14 16.4804 14.1054 16.2929 14.2929C16.1054 14.4804 16 14.7348 16 15C16 15.2652 16.1054 15.5196 16.2929 15.7071C16.4804 15.8946 16.7348 16 17 16H23C23.2652 16 23.5196 15.8946 23.7071 15.7071C23.8946 15.5196 24 15.2652 24 15Z" fill="black"/>
</svg>
